<?xml version="1.0" encoding="UTF-8" standalone="no"?>
<svg version="1.1" id="carrier" xmlns="http://www.w3.org/2000/svg" xmlns:xlink="http://www.w3.org/1999/xlink" x="0px" y="0px" viewBox="0 0 56 56" style="enable-background:new 0 0 56 56;" xml:space="preserve">
    <g>
        <path fill="#000000" d="M28,2.5c1.4,0,2.8,0,4.2,0c0.3,0,0.4,0.1,0.5,0.3c2.4,4.9,4.9,9.7,7.3,14.6c2.6,5.1,5.1,10.2,7.7,15.2
            c0.6,1.2,1.2,2.5,1.9,3.7c0.1,0.2,0.1,0.4-0.1,0.6c-3.1,3.5-6.3,7-9.4,10.5c-0.2,0.2-0.4,0.3-0.6,0.3c-1.6,0-3.2,0-4.8,0
            c-0.3,0-0.4-0.1-0.6-0.3c-1.3-1.4-2.5-2.8-3.8-4.3c-0.2-0.2-0.3-0.3-0.6-0.3c-1.1,0-2.3,0-3.4,0c-0.2,0-0.4,0.1-0.6,0.2
            c-1.3,1.4-2.5,2.9-3.8,4.3c-0.2,0.2-0.3,0.3-0.6,0.3c-1.6,0-3.3,0-4.9,0c-0.2,0-0.4-0.1-0.5-0.2c-3.1-3.5-6.3-7-9.4-10.4
            c-0.2-0.3-0.3-0.4-0.1-0.8c3.1-6.1,6.1-12.2,9.2-18.3c2.5-5,5-10,7.5-15.1c0.1-0.3,0.3-0.4,0.6-0.4C25.2,2.5,26.6,2.5,28,2.5z
            M47.2,36.3c-0.1-0.1-0.1-0.3-0.2-0.4c-3.2-6.4-6.4-12.7-9.6-19.1c-2-4-4-7.9-6-11.9c-0.1-0.2-0.2-0.3-0.5-0.3c-2,0-4,0-6,0
            c-0.2,0-0.3,0.1-0.4,0.3c-0.6,1.2-1.2,2.5-1.8,3.7C18.1,17.7,13.6,26.8,9,35.9c-0.1,0.2-0.2,0.3,0,0.6c2.6,2.9,5.3,5.9,7.9,8.8
            c0.1,0.1,0.3,0.2,0.5,0.2c1,0,2,0,3.1,0c0.2,0,0.4-0.1,0.5-0.3c1.3-1.4,2.5-2.8,3.8-4.3c0.2-0.2,0.4-0.3,0.6-0.3c1.7,0,3.5,0,5.2,0
            c0.3,0,0.5,0.1,0.6,0.3c1.3,1.4,2.5,2.8,3.8,4.3c0.1,0.2,0.3,0.2,0.5,0.2c1,0,2,0,3,0c0.3,0,0.4-0.1,0.6-0.3
            c1.8-2.1,3.7-4.1,5.5-6.2C45.6,38.1,46.4,37.2,47.2,36.3z"></path>
        <path fill="#000000" d="M28,17c5.6-0.2,10.6,4.7,10.6,10.5c0,5.7-4.9,10.6-10.9,10.5c-5.3-0.1-10.3-4.7-10.2-10.6
            C17.5,21.8,22.5,16.8,28,17z M28,35.9c4.5,0.1,8.5-3.8,8.5-8.4c0-4.6-4-8.3-8.2-8.4c-4.7-0.1-8.7,3.8-8.6,8.4
            C19.6,32.2,23.3,35.9,28,35.9z"></path>
        <path fill="#000000" d="M23.4,28.5c0-0.7,0-1.4,0-2.1c3.1,0,6.1,0,9.2,0c0,0.7,0,1.3,0,2.1C29.5,28.5,26.5,28.5,23.4,28.5z"></path>
    </g>
</svg>