<?xml version="1.0" encoding="utf-8"?>
<svg viewBox="0 0 500 190" xmlns="http://www.w3.org/2000/svg" xmlns:bx="https://boxy-svg.com">
  <path style="paint-order: fill; stroke: rgb(255, 113, 0); fill: rgb(255, 113, 0); fill-opacity: 0.1; stroke-opacity: 0.1;" transform="matrix(0.475737, 0, 0, 0.475573, -50.167091, -316.918488)" d="M 1124.808472223 704.231585318 A 525.5 525.5 0 0 1 1005.169687168 893.481429349 L 960.269324708 849.203657827 A 462.44 462.44 0 0 0 1065.551455556 682.66379508 Z" bx:shape="pie 631 524.5 462.44 525.5 110 134.6 1@578704ed" bx:origin="-5.195227 -0.111092"/>
  <path style="paint-order: fill; stroke: rgb(255, 113, 0); fill: rgb(255, 113, 0); stroke-opacity: 0.1; fill-opacity: 0.1;" transform="matrix(0.475737, 0, 0, 0.475573, -50.167091, -316.956512)" d="M 985.345904675 912.558281499 A 525.5 525.5 0 0 1 773.20053436 1030.394512747 L 756.136470237 969.687171217 A 462.44 462.44 0 0 0 942.824396114 865.991287719 Z" bx:shape="pie 631 524.5 462.44 525.5 137.6 164.3 1@de057a5d" bx:origin="-2.838824 -1.257078"/>
  <path style="paint-order: fill; stroke: rgb(255, 113, 0); fill: rgb(255, 113, 0);" transform="matrix(0.475737, 0, 0, 0.475573, -50.167091, -316.956512)" d="M 492.334712243 1031.3749234 A 525.5 525.5 0 0 1 291.111970867 925.282207255 L 331.898534363 877.188342384 A 462.44 462.44 0 0 0 508.974546774 970.549932592 Z" bx:shape="pie 631 524.5 462.44 525.5 195.3 220.3 1@4b282f40" bx:origin="-0.852192 -1.412995"/>
  <path style="paint-order: fill; stroke: rgb(255, 113, 0); fill: rgb(255, 113, 0); fill-opacity: 0.1; stroke-opacity: 0.1;" transform="matrix(0.475737, 0, 0, 0.475573, -50.167091, -316.956512)" d="M 746.529180387 1037.143402844 A 525.5 525.5 0 0 1 519.052532012 1037.937449366 L 532.486228171 976.324955442 A 462.44 462.44 0 0 0 732.665678741 975.626194502 Z" bx:shape="pie 631 524.5 462.44 525.5 167.3 192.3 1@ce5f3511" bx:origin="-1.818215 -4.252879"/>
  <path style="paint-order: fill; stroke: rgb(255, 113, 0); fill: rgb(255, 113, 0);" transform="matrix(0.475737, 0, 0, 0.475573, -50.167091, -316.956512)" d="M 270.602455537 906.944584149 A 525.5 525.5 0 0 1 137.191527777 704.231585318 L 196.448544444 682.66379508 A 462.44 462.44 0 0 0 313.850160872 861.051234051 Z" bx:shape="pie 631 524.5 462.44 525.5 223.3 250 1@cc61552f" bx:origin="-0.17967 -0.104067"/>
</svg>