<?xml version="1.0" encoding="utf-8"?>
<svg viewBox="0 0 510 190" xmlns="http://www.w3.org/2000/svg" xmlns:bx="https://boxy-svg.com">
  <path style="paint-order: fill; stroke: rgb(255, 113, 0); fill: rgb(255, 113, 0);" transform="matrix(0.475737, 0, 0, 0.475573, -50.167091, -313.518463)" d="M 1124.808472223 704.231585318 A 525.5 525.5 0 0 1 950.904130944 941.407180323 L 912.515635231 891.378318684 A 462.44 462.44 0 0 0 1065.551455556 682.66379508 Z" bx:shape="pie 631 524.5 462.44 525.5 110 142.5 1@c2819d31" bx:origin="0.5 0"/>
  <path style="paint-order: fill; fill: rgb(255, 113, 0); stroke: rgb(255, 113, 0);" transform="matrix(0.475737, 0, 0, 0.475573, -50.167091, -313.518463)" d="M 932.414417302 954.964399274 A 525.5 525.5 0 0 1 653.92198806 1049.499840441 L 651.171349493 986.499859588 A 462.44 462.44 0 0 0 896.244687226 903.308671361 Z" bx:shape="pie 631 524.5 462.44 525.5 145 177.5 1@e00efd8f" bx:origin="0.5 0"/>
  <path style="paint-order: fill; stroke: rgb(255, 113, 0); fill: rgb(255, 113, 0);" transform="matrix(0.475737, 0, 0, 0.475573, -50.167091, -313.518463)" d="M 631 1050 A 525.5 525.5 0 0 1 348.649055814 967.702204775 L 382.531169116 914.517940202 A 462.44 462.44 0 0 0 631 986.94 Z" bx:shape="pie 631 524.5 462.44 525.5 180 212.5 1@c9d3b912" bx:origin="0.5 0"/>
  <path style="paint-order: fill; fill: rgb(255, 113, 0); stroke: rgb(255, 113, 0);" transform="matrix(0.475737, 0, 0, 0.475573, -50.167091, -313.518463)" d="M 329.585582698 954.964399274 A 525.5 525.5 0 0 1 137.191527777 704.231585318 L 196.448544444 682.66379508 A 462.44 462.44 0 0 0 365.755312774 903.308671361 Z" bx:shape="pie 631 524.5 462.44 525.5 215 250 1@6680ab7d" bx:origin="0.5 0"/>
</svg>