<?xml version="1.0" encoding="utf-8"?>
<svg viewBox="0 0 500 500" xmlns="http://www.w3.org/2000/svg" xmlns:bx="https://boxy-svg.com">
  <path style="fill: rgb(216, 216, 216); stroke: rgb(0, 0, 0); fill-opacity: 0.15; stroke-opacity: 0.5;" transform="matrix(0.546265, 0, 0, 0.546265, -35.423622, -46.075779)" d="M 298.25 930.412393597 A 448.5 448.5 0 0 1 298.25 153.587606403 L 339.4385 224.92818109 A 366.123 366.123 0 0 0 339.4385 859.07181891 Z" bx:shape="pie 522.5 542 366.123 448.5 210 330 1@23dc5ae9"/>
  <path style="fill: rgb(216, 216, 216); stroke: rgb(0, 0, 0); fill-opacity: 0.5; stroke-opacity: 0.5;" transform="matrix(0.546265, 0, 0, 0.546265, -35.423595, -46.099533)" d="M 298.25 930.412393597 A 448.5 448.5 0 0 1 298.25 153.587606403 L 325.709 201.147989528 A 393.582 393.582 0 0 0 325.709 882.852010472 Z" bx:shape="pie 522.5 542 393.582 448.5 210 330 1@420b0a58"/>
  <path style="fill: rgb(0, 179, 247); stroke: rgb(0, 179, 247);" transform="matrix(0.546265, 0, 0, 0.546265, -35.423611, -46.075634)" d="M 112.774862247 724.421384419 A 448.5 448.5 0 0 1 85.495025944 642.890547873 L 139.005481162 630.536685871 A 393.582 393.582 0 0 0 162.94495169 702.084221455 Z" bx:shape="pie 522.5 542 393.582 448.5 246 257 1@eb4572e5"/>
  <path style="fill: rgb(0, 179, 247); stroke: rgb(0, 179, 247);" transform="matrix(0.546265, 0, 0, 0.546265, -35.423611, -46.075634)" d="M 222.394923048 875.300454227 A 448.5 448.5 0 0 1 164.311973744 811.914037884 L 208.171438685 778.863560442 A 393.582 393.582 0 0 0 259.142237688 834.488426701 Z" bx:shape="pie 522.5 542 393.582 448.5 222 233 1@784a4ae3"/>
  <path style="fill: rgb(0, 179, 247); stroke: rgb(0, 179, 247);" transform="matrix(0.546265, 0, 0, 0.546265, -35.423611, -46.075634)" d="M 298.25 930.412393597 A 448.5 448.5 0 0 1 228.257525498 880.48724673 L 264.286975252 839.040106003 A 393.582 393.582 0 0 0 325.709 882.852010472 Z" bx:shape="pie 522.5 542 393.582 448.5 210 221 1@54bc9e71"/>
  <path style="fill: rgb(0, 179, 247); stroke: rgb(0, 179, 247);" transform="matrix(0.546265, 0, 0, 0.546265, -35.423611, -46.075634)" d="M 159.655878023 805.621685653 A 448.5 448.5 0 0 1 116.020957514 731.544290391 L 165.793568563 708.334940692 A 393.582 393.582 0 0 0 204.08547332 773.341695168 Z" bx:shape="pie 522.5 542 393.582 448.5 234 245 1@18da0397"/>
  <path style="fill: rgb(0, 179, 247); stroke: rgb(0, 179, 247);" transform="matrix(0.546265, 0, 0, 0.546265, -35.423611, -46.075634)" d="M 83.800801071 635.248393332 A 448.5 448.5 0 0 1 74 542 L 128.918 542 A 393.582 393.582 0 0 0 137.518711008 623.830299095 Z" bx:shape="pie 522.5 542 393.582 448.5 258 270 1@fdd8bda2"/>
  <path style="fill: rgb(216, 216, 216); stroke: rgb(0, 0, 0); fill-opacity: 0.15; stroke-opacity: 0.5;" transform="matrix(-0.546265, 0, 0, 0.546265, 535.423401, -46.07579)" d="M 298.25 930.412393597 A 448.5 448.5 0 0 1 298.25 153.587606403 L 339.4385 224.92818109 A 366.123 366.123 0 0 0 339.4385 859.07181891 Z" bx:shape="pie 522.5 542 366.123 448.5 210 330 1@23dc5ae9" bx:origin="3.420048 -0.098028"/>
  <path style="fill: rgb(216, 216, 216); stroke: rgb(0, 0, 0); fill-opacity: 0.5; stroke-opacity: 0.5;" transform="matrix(-0.546265, 0, 0, 0.546265, 535.423401, -46.099533)" d="M 298.25 930.412393597 A 448.5 448.5 0 0 1 298.25 153.587606403 L 325.709 201.147989528 A 393.582 393.582 0 0 0 325.709 882.852010472 Z" bx:shape="pie 522.5 542 393.582 448.5 210 330 1@420b0a58" bx:origin="3.606594 -0.097972"/>
  <path style="fill: rgb(255, 0, 0); stroke: rgb(255, 0, 0);" transform="matrix(-0.546265, 0, 0, 0.546265, 535.423401, -46.075638)" d="M 112.774862247 724.421384419 A 448.5 448.5 0 0 1 85.495025944 642.890547873 L 139.005481162 630.536685871 A 393.582 393.582 0 0 0 162.94495169 702.084221455 Z" bx:shape="pie 522.5 542 393.582 448.5 246 257 1@eb4572e5" bx:origin="11.572864 -5.891268"/>
  <path style="fill: rgb(255, 0, 0); stroke: rgb(255, 0, 0);" transform="matrix(-0.546265, 0, 0, 0.546265, 535.423401, -46.075638)" d="M 222.394923048 875.300454227 A 448.5 448.5 0 0 1 164.311973744 811.914037884 L 208.171438685 778.863560442 A 393.582 393.582 0 0 0 259.142237688 834.488426701 Z" bx:shape="pie 522.5 542 393.582 448.5 222 233 1@784a4ae3" bx:origin="8.62067 -7.273429"/>
  <path style="fill: rgb(255, 0, 0); stroke: rgb(255, 0, 0);" transform="matrix(-0.546265, 0, 0, 0.546265, 535.423401, -46.075638)" d="M 298.25 930.412393597 A 448.5 448.5 0 0 1 228.257525498 880.48724673 L 264.286975252 839.040106003 A 393.582 393.582 0 0 0 325.709 882.852010472 Z" bx:shape="pie 522.5 542 393.582 448.5 210 221 1@54bc9e71" bx:origin="7.732615 -8.335166"/>
  <path style="fill: rgb(255, 0, 0); stroke: rgb(255, 0, 0);" transform="matrix(-0.546265, 0, 0, 0.546265, 535.423401, -46.075638)" d="M 159.655878023 805.621685653 A 448.5 448.5 0 0 1 116.020957514 731.544290391 L 165.793568563 708.334940692 A 393.582 393.582 0 0 0 204.08547332 773.341695168 Z" bx:shape="pie 522.5 542 393.582 448.5 234 245 1@18da0397" bx:origin="9.831331 -6.484936"/>
  <path style="fill: rgb(255, 0, 0); stroke: rgb(255, 0, 0);" transform="matrix(-0.546265, 0, 0, 0.546265, 535.423401, -46.075638)" d="M 83.800801071 635.248393332 A 448.5 448.5 0 0 1 74 542 L 128.918 542 A 393.582 393.582 0 0 0 137.518711008 623.830299095 Z" bx:shape="pie 522.5 542 393.582 448.5 258 270 1@fdd8bda2" bx:origin="14.292048 -4.981997"/>
</svg>