<?xml version="1.0" encoding="utf-8"?>
<svg id="aa6b7acf-47bc-4779-ae6d-9c90eab336d5" data-name="Layer 1" viewBox="0 0 1400 1400" xmlns="http://www.w3.org/2000/svg" xmlns:bx="https://boxy-svg.com">
  <defs>
    <style>
      .f4348a62-f7f6-4c28-948b-d221de5632a0 {
        fill: #fc6f05;
      }
    </style>
  </defs>
  <path class="f4348a62-f7f6-4c28-948b-d221de5632a0" d="M 1007.486 404.022 L 1007.486 347.509 L 726.738 347.509 L 726.738 192.1 L 673.262 192.1 L 673.262 347.509 L 392.514 347.509 L 392.514 404.022 L 200 861.772 C 200 986.616 295.768 1087.822 413.904 1087.822 C 532.039 1087.822 627.807 986.616 627.807 861.772 L 435.294 404.022 L 964.706 404.022 L 772.193 861.772 C 772.193 986.616 867.961 1087.822 986.096 1087.822 C 1104.232 1087.822 1200 986.616 1200 861.772 Z M 586.664 833.516 L 597.774 861.772 L 230.033 861.772 L 241.143 833.516 L 413.904 422.734 Z M 802.226 861.772 L 813.336 833.516 L 986.096 422.734 L 1158.857 833.516 L 1169.967 861.772 Z"/>
  <path d="M 700 700 m -690 0 a 690 690 0 1 0 1380 0 a 690 690 0 1 0 -1380 0 Z M 700 700 m -640 0 a 640 640 0 0 1 1280 0 a 640 640 0 0 1 -1280 0 Z" style="stroke: rgb(0, 0, 0); fill: rgb(252, 111, 5); stroke-width: 0px;" bx:shape="ring 700 700 640 640 690 690 1@ee5afe5a"/>
</svg>